<svg xmlns="http://www.w3.org/2000/svg" xml:space="preserve" width="2000" height="138" data-id="lg_n7790OLxc3mbtqfpLm" data-version="1" viewBox="0 0 2000 138"><g data-padding="20"><g transform="translate(10 2.464)scale(.96429)"><rect width="555.294" height="136.73" x="348.515" y="-399.765" fill="none" rx="0" ry="0" transform="translate(402.86 400.99)"/><path fill="#1f2b33" d="M766.492 107.1V34.5h-13.91V22.4h41.14v12.1h-13.92v72.6Zm33.64 0V22.4h19.72q10.29 0 15.01 4.78 4.72 4.77 4.72 14.7v5.2q0 13.19-8.72 16.7v.24q4.84 1.45 6.84 5.93t2 11.98v14.88q0 3.63.24 5.87t1.21 4.42h-13.55q-.73-2.06-.97-3.88-.24-1.81-.24-6.53V81.2q0-5.81-1.88-8.11-1.87-2.29-6.47-2.29h-4.6v36.3Zm13.31-48.4h4.84q3.99 0 5.99-2.06t2-6.9v-6.53q0-4.6-1.64-6.66-1.63-2.05-5.14-2.05h-6.05Zm31.94 48.4 13.8-84.7h18.03l13.79 84.7h-13.31l-2.42-16.82v.24h-15.12l-2.42 16.58Zm16.34-28.08h11.98l-5.93-41.86h-.24Zm35.69 28.08V22.4h16.7l12.95 50.69h.24V22.4h11.86v84.7h-13.67l-15.98-61.84h-.24v61.84Zm68.97 1.21q-9.68 0-14.64-5.51t-4.96-15.79v-4.84h12.59v5.81q0 8.23 6.89 8.23 3.39 0 5.14-2 1.76-2 1.76-6.47 0-5.33-2.42-9.38-2.42-4.06-8.95-9.74-8.23-7.26-11.5-13.13t-3.27-13.25q0-10.04 5.09-15.55 5.08-5.5 14.76-5.5 9.56 0 14.46 5.5 4.9 5.51 4.9 15.79v3.51h-12.59v-4.36q0-4.35-1.69-6.35-1.69-1.99-4.96-1.99-6.66 0-6.66 8.1 0 4.6 2.48 8.59 2.48 4 9.02 9.68 8.35 7.26 11.49 13.19 3.15 5.93 3.15 13.92 0 10.4-5.14 15.97-5.15 5.57-14.95 5.57m27.72-1.21V22.4h35.21v12.1h-21.9v23.59h17.18v12.1h-17.18v36.91Zm60.87 1.21q-9.81 0-15.01-5.57t-5.2-15.73V42.48q0-10.16 5.2-15.73 5.2-5.56 15.01-5.56 9.8 0 15 5.56 5.2 5.57 5.2 15.73v44.53q0 10.16-5.2 15.73t-15 5.57m0-12.1q6.89 0 6.89-8.35V41.63q0-8.34-6.89-8.34-6.9 0-6.9 8.34v46.23q0 8.35 6.9 8.35m29.15 10.89V22.4h19.72q10.28 0 15 4.78 4.72 4.77 4.72 14.7v5.2q0 13.19-8.71 16.7v.24q4.84 1.45 6.84 5.93 1.99 4.48 1.99 11.98v14.88q0 3.63.25 5.87.24 2.24 1.21 4.42h-13.56q-.72-2.06-.96-3.88-.25-1.81-.25-6.53V81.2q0-5.81-1.87-8.11-1.88-2.29-6.48-2.29h-4.59v36.3Zm13.31-48.4h4.84q3.99 0 5.99-2.06 1.99-2.06 1.99-6.9v-6.53q0-4.6-1.63-6.66-1.63-2.05-5.14-2.05h-6.05Zm35.45 48.4V22.4h19l8.47 60.62h.24l8.47-60.62h19v84.7h-12.59V42.97h-.24l-9.68 64.13h-11.13l-9.68-64.13h-.24v64.13Zm65.1 0V22.4h13.31v84.7Zm23.24 0V22.4h35.21v12.1h-21.9v23.59h17.18v12.1h-17.18v36.91Zm53.83 0V71.04l-16.09-48.64h14.16l9.07 31.09h.25l9.07-31.09h12.95l-16.1 48.64v36.06Z"/><rect width="555.294" height="136.73" x="348.515" y="-399.765" fill="none" rx="0" ry="0" transform="translate(398.15 399.81)"/><path fill="#9cd9ff" d="M761.782 105.92v-72.6h-13.91v-12.1h41.14v12.1h-13.92v72.6Zm33.64 0v-84.7h19.72q10.29 0 15.01 4.78 4.72 4.77 4.72 14.7v5.2q0 13.19-8.72 16.7v.24q4.84 1.45 6.84 5.93t2 11.98v14.88q0 3.63.24 5.87t1.21 4.42h-13.55q-.73-2.06-.97-3.88-.24-1.81-.24-6.53V80.02q0-5.81-1.88-8.11-1.87-2.29-6.47-2.29h-4.6v36.3Zm13.31-48.4h4.84q3.99 0 5.99-2.06t2-6.9v-6.53q0-4.6-1.64-6.66-1.63-2.05-5.14-2.05h-6.05Zm31.94 48.4 13.8-84.7h18.03l13.79 84.7h-13.31l-2.42-16.82v.24h-15.12l-2.42 16.58Zm16.34-28.08h11.98l-5.93-41.86h-.24Zm35.69 28.08v-84.7h16.7l12.95 50.69h.24V21.22h11.86v84.7h-13.67l-15.98-61.84h-.24v61.84Zm68.98 1.22q-9.68 0-14.64-5.51t-4.96-15.79V81h12.59v5.81q0 8.23 6.89 8.23 3.39 0 5.14-2 1.76-2 1.76-6.47 0-5.33-2.42-9.38-2.42-4.06-8.95-9.74-8.23-7.26-11.5-13.13t-3.27-13.25q0-10.04 5.09-15.55 5.08-5.5 14.76-5.5 9.56 0 14.46 5.5 4.9 5.51 4.9 15.79v3.51h-12.59v-4.36q0-4.35-1.69-6.35-1.69-1.99-4.96-1.99-6.66 0-6.66 8.1 0 4.6 2.48 8.59 2.48 4 9.02 9.68 8.35 7.26 11.49 13.19 3.15 5.93 3.15 13.92 0 10.4-5.14 15.97-5.15 5.57-14.95 5.57m27.7-1.22v-84.7h35.21v12.1h-21.9v23.59h17.18v12.1h-17.18v36.91Zm60.87 1.22q-9.81 0-15.01-5.57t-5.2-15.73V41.31q0-10.16 5.2-15.73 5.2-5.56 15.01-5.56 9.8 0 15 5.56 5.2 5.57 5.2 15.73v44.53q0 10.16-5.2 15.73t-15 5.57m0-12.1q6.89 0 6.89-8.35V40.46q0-8.34-6.89-8.34-6.9 0-6.9 8.34v46.23q0 8.35 6.9 8.35m29.16 10.88v-84.7h19.72q10.28 0 15 4.78 4.72 4.77 4.72 14.7v5.2q0 13.19-8.71 16.7v.24q4.84 1.45 6.84 5.93 1.99 4.48 1.99 11.98v14.88q0 3.63.25 5.87.24 2.24 1.21 4.42h-13.56q-.72-2.06-.96-3.88-.25-1.81-.25-6.53V80.02q0-5.81-1.87-8.11-1.88-2.29-6.48-2.29h-4.59v36.3Zm13.31-48.4h4.84q3.99 0 5.99-2.06 1.99-2.06 1.99-6.9v-6.53q0-4.6-1.63-6.66-1.63-2.05-5.14-2.05h-6.05Zm35.45 48.4v-84.7h19l8.47 60.62h.24l8.47-60.62h19v84.7h-12.59V41.79h-.24l-9.68 64.13h-11.13l-9.68-64.13h-.24v64.13Zm65.11 0v-84.7h13.31v84.7Zm23.23 0v-84.7h35.21v12.1h-21.9v23.59h17.18v12.1h-17.18v36.91Zm53.83 0V69.86l-16.09-48.64h14.16l9.07 31.09h.25l9.07-31.09h12.95l-16.1 48.64v36.06Z"/></g><path fill="transparent" stroke="transparent" d="M720 0h560v138H720z"/></g></svg>