<svg xmlns="http://www.w3.org/2000/svg" version="1.1" xmlns:xlink="http://www.w3.org/1999/xlink" xmlns:svgjs="http://svgjs.dev/svgjs" width="1500" height="1500" viewBox="0 0 1500 1500"><rect width="1500" height="1500" fill="#000000"></rect><g transform="matrix(0.6666666666666666,0,0,0.6666666666666666,249.39393939393938,604.7338133962476)"><svg viewBox="0 0 396 115" data-background-color="#8dbdff" preserveAspectRatio="xMidYMid meet" height="435" width="1500" xmlns="http://www.w3.org/2000/svg" xmlns:xlink="http://www.w3.org/1999/xlink"><g id="tight-bounds" transform="matrix(1,0,0,1,0.2400000000000091,0.10555675666046227)"><svg viewBox="0 0 395.52 114.78888648667906" height="114.78888648667906" width="395.52"><g><svg viewBox="0 0 395.52 114.78888648667906" height="114.78888648667906" width="395.52"><g transform="matrix(1,0,0,1,0,70.94413695050095)"><svg viewBox="0 0 395.52 43.844749536178114" height="43.844749536178114" width="395.52"><g id="textblocktransform"><svg viewBox="0 0 395.52 43.844749536178114" height="43.844749536178114" width="395.52" id="textblock"><g><svg viewBox="0 0 395.52 43.844749536178114" height="43.844749536178114" width="395.52"><g transform="matrix(1,0,0,1,0,0)"><svg width="395.52" viewBox="0.45 -35.45 323.37 35.85" height="43.844749536178114" data-palette-color="#000000"><path d="M0.45-29.95L0.45-35 28.5-35 28.5-29.95 17.4-29.95 17.4 0 11.5 0 11.5-29.95 0.45-29.95ZM33.55 0L33.55-35 39.45-35 39.45-19.65 58-19.65 58-35 63.9-35 63.9 0 58 0 58-14.65 39.45-14.65 39.45 0 33.55 0ZM73.09 0L73.09-35 98.09-35 98.09-29.95 79-29.95 79-20.1 96.09-20.1 96.09-15.1 79-15.1 79-5.05 98.7-5.05 98.7 0 73.09 0ZM114.84 0L130.29-35 136.34-35 151.64 0 145.34 0 133.14-29.05 120.99 0 114.84 0ZM122.54-8.1L122.54-13.1 143.49-13.1 143.49-8.1 122.54-8.1ZM156.29 0L156.29-35 162.19-35 162.19 0 156.29 0ZM208.63-31.85L206.18-26.9Q204.28-28.1 202.43-28.8 200.58-29.5 198.93-29.8 197.28-30.1 195.93-30.1L195.93-30.1Q193.33-30.1 191.78-29.1 190.23-28.1 190.23-26.2L190.23-26.2Q190.23-24.5 191.26-23.43 192.28-22.35 193.96-21.68 195.63-21 197.66-20.4 199.68-19.8 201.68-19.07 203.68-18.35 205.38-17.2 207.08-16.05 208.08-14.28 209.08-12.5 209.08-9.8L209.08-9.8Q209.08-6.7 207.38-4.42 205.68-2.15 202.71-0.9 199.73 0.35 195.88 0.35L195.88 0.35Q193.13 0.35 190.53-0.38 187.93-1.1 185.66-2.35 183.38-3.6 181.58-5.25L181.58-5.25 184.13-10.1Q185.93-8.45 187.96-7.3 189.98-6.15 192.06-5.55 194.13-4.95 195.98-4.95L195.98-4.95Q199.08-4.95 200.81-6.15 202.53-7.35 202.53-9.5L202.53-9.5Q202.53-11.25 201.51-12.33 200.48-13.4 198.81-14.1 197.13-14.8 195.11-15.35 193.08-15.9 191.06-16.63 189.03-17.35 187.36-18.45 185.68-19.55 184.66-21.3 183.63-23.05 183.63-25.75L183.63-25.75Q183.63-28.7 185.23-30.88 186.83-33.05 189.71-34.25 192.58-35.45 196.38-35.45L196.38-35.45Q199.78-35.45 202.98-34.45 206.18-33.45 208.63-31.85L208.63-31.85ZM215.98 0L215.98-35 221.88-35 221.88-19.65 240.43-19.65 240.43-35 246.33-35 246.33 0 240.43 0 240.43-14.65 221.88-14.65 221.88 0 215.98 0ZM271.18-35.35L271.18-35.35Q275.08-35.35 278.45-34 281.83-32.65 284.35-30.2 286.88-27.75 288.3-24.53 289.73-21.3 289.73-17.55L289.73-17.55Q289.73-13.8 288.3-10.53 286.88-7.25 284.35-4.8 281.83-2.35 278.45-0.98 275.08 0.4 271.18 0.4L271.18 0.4Q267.28 0.4 263.9-0.98 260.53-2.35 258-4.8 255.48-7.25 254.05-10.53 252.63-13.8 252.63-17.55L252.63-17.55Q252.63-21.3 254.05-24.55 255.48-27.8 258-30.23 260.53-32.65 263.9-34 267.28-35.35 271.18-35.35ZM271.23-30.35L271.23-30.35Q268.63-30.35 266.35-29.38 264.08-28.4 262.33-26.65 260.58-24.9 259.6-22.58 258.63-20.25 258.63-17.55L258.63-17.55Q258.63-14.85 259.63-12.5 260.63-10.15 262.38-8.38 264.13-6.6 266.4-5.6 268.68-4.6 271.23-4.6L271.23-4.6Q273.78-4.6 276.05-5.6 278.33-6.6 280.03-8.38 281.73-10.15 282.7-12.5 283.68-14.85 283.68-17.55L283.68-17.55Q283.68-20.25 282.7-22.58 281.73-24.9 280.03-26.65 278.33-28.4 276.05-29.38 273.78-30.35 271.23-30.35ZM296.03-35L309.98-35Q316.57-35 320.2-31.88 323.82-28.75 323.82-23.1L323.82-23.1Q323.82-17.2 320.2-13.93 316.57-10.65 309.98-10.65L309.98-10.65 299.32-10.65 301.93-13.25 301.93 0 296.03 0 296.03-35ZM299.32-15.7L309.73-15.7Q313.78-15.7 315.98-17.48 318.18-19.25 318.18-22.95L318.18-22.95Q318.18-26.5 315.98-28.23 313.78-29.95 309.73-29.95L309.73-29.95 299.32-29.95 301.93-32.55 301.93-13.1 299.32-15.7Z" opacity="1" transform="matrix(1,0,0,1,0,0)" fill="#ffffff" class="wordmark-text-0" data-fill-palette-color="primary" id="text-0"></path></svg></g></svg></g></svg></g></svg></g><g transform="matrix(1,0,0,1,142.73126016886903,0)"><svg viewBox="0 0 110.05747966226193 60.59344385899816" height="60.59344385899816" width="110.05747966226193"><g><svg xmlns="http://www.w3.org/2000/svg" xmlns:xlink="http://www.w3.org/1999/xlink" version="1.1" x="0" y="0" viewBox="1.39 20.99 87.22 48.02000000000001" enable-background="new 0 0 90 90" xml:space="preserve" height="60.59344385899816" width="110.05747966226193" class="icon-icon-0" data-fill-palette-color="accent" id="icon-0"><rect x="1.39" y="45.49" width="23.52" height="23.52" fill="#ffffff" data-fill-palette-color="accent"></rect><polygon points="43.294,33.24 25.263,44.51 2.604,44.51 20.638,33.24 " fill="#ffffff" data-fill-palette-color="accent"></polygon><polygon points="64.108,44.727 25.89,68.617 25.89,45.273 64.108,21.382 " fill="#ffffff" data-fill-palette-color="accent"></polygon><polygon points="64.728,45.49 87.394,45.49 69.36,56.76 46.704,56.76 " fill="#ffffff" data-fill-palette-color="accent"></polygon><rect x="65.089" y="20.99" width="23.521" height="23.52" fill="#ffffff" data-fill-palette-color="accent"></rect></svg></g></svg></g><g></g></svg></g><defs></defs></svg><rect width="395.52" height="114.78888648667906" fill="none" stroke="none" visibility="hidden"></rect></g></svg></g></svg>